<?xml version="1.0" encoding="UTF-8" standalone="no"?>
<!-- Created with Inkscape (http://www.inkscape.org/) -->

<svg
   width="512"
   height="512"
   viewBox="0 0 512 512.00002"
   version="1.1"
   id="svg10155"
   inkscape:version="1.2.2 (732a01da63, 2022-12-09)"
   sodipodi:docname="logo-favicon3.svg"
   inkscape:export-filename="logo-favicon2.png"
   inkscape:export-xdpi="96"
   inkscape:export-ydpi="96"
   xml:space="preserve"
   xmlns:inkscape="http://www.inkscape.org/namespaces/inkscape"
   xmlns:sodipodi="http://sodipodi.sourceforge.net/DTD/sodipodi-0.dtd"
   xmlns="http://www.w3.org/2000/svg"
   xmlns:svg="http://www.w3.org/2000/svg"><sodipodi:namedview
     id="namedview10157"
     pagecolor="#ffffff"
     bordercolor="#666666"
     borderopacity="1.0"
     inkscape:showpageshadow="2"
     inkscape:pageopacity="0.0"
     inkscape:pagecheckerboard="0"
     inkscape:deskcolor="#d1d1d1"
     inkscape:document-units="px"
     showgrid="true"
     inkscape:zoom="0.543628"
     inkscape:cx="179.35059"
     inkscape:cy="513.2186"
     inkscape:window-width="1720"
     inkscape:window-height="1377"
     inkscape:window-x="1704"
     inkscape:window-y="0"
     inkscape:window-maximized="0"
     inkscape:current-layer="layer1"><inkscape:grid
       type="xygrid"
       id="grid10276"
       empspacing="2" /></sodipodi:namedview><defs
     id="defs10152"><marker
   style="overflow:visible"
   id="marker1618"
   refX="0"
   refY="0"
   orient="auto-start-reverse"
   inkscape:stockid="Arrow1"
   markerWidth="4.06066017"
   markerHeight="6.70710678"
   viewBox="0 0 4.06066017 6.70710678"
   inkscape:isstock="true"
   inkscape:collect="always"
   preserveAspectRatio="xMidYMid"><path
     style="fill:none;stroke:context-stroke;stroke-width:1;stroke-linecap:butt"
     d="M 3,-3 0,0 3,3"
     id="path1616"
     transform="rotate(180,0.125,0)"
     sodipodi:nodetypes="ccc" /></marker><marker
   style="overflow:visible"
   id="marker1590"
   refX="0"
   refY="0"
   orient="auto-start-reverse"
   inkscape:stockid="Arrow1"
   markerWidth="4.06066017"
   markerHeight="6.70710678"
   viewBox="0 0 4.06066017 6.70710678"
   inkscape:isstock="true"
   inkscape:collect="always"
   preserveAspectRatio="xMidYMid"><path
     style="fill:none;stroke:context-stroke;stroke-width:1;stroke-linecap:butt"
     d="M 3,-3 0,0 3,3"
     id="path1588"
     transform="rotate(180,0.125,0)"
     sodipodi:nodetypes="ccc" /></marker><marker
   style="overflow:visible"
   id="Arrow1"
   refX="0"
   refY="0"
   orient="auto-start-reverse"
   inkscape:stockid="Arrow1"
   markerWidth="4.06066017"
   markerHeight="6.70710678"
   viewBox="0 0 4.06066017 6.70710678"
   inkscape:isstock="true"
   inkscape:collect="always"
   preserveAspectRatio="xMidYMid"><path
     style="fill:none;stroke:context-stroke;stroke-width:1;stroke-linecap:butt"
     d="M 3,-3 0,0 3,3"
     id="path5057"
     transform="rotate(180,0.125,0)"
     sodipodi:nodetypes="ccc" /></marker>
	
	
	
	
	
	
	
	
	
	
	
	
	
	

	

		
	</defs><g
     inkscape:label="Layer 1"
     inkscape:groupmode="layer"
     id="layer1"><rect
       style="fill:#fcbd15;fill-opacity:1;stroke-width:5.73889;stroke-linecap:round;stroke-linejoin:round"
       id="rect10056"
       width="256"
       height="256"
       x="256"
       y="256" /><rect
       style="fill:#ed3902;fill-opacity:1;stroke-width:5.73889;stroke-linecap:round;stroke-linejoin:round"
       id="rect10058"
       width="256"
       height="256"
       x="0"
       y="0" /><rect
       style="fill:#f8730e;fill-opacity:1;stroke-width:5.73889;stroke-linecap:round;stroke-linejoin:round"
       id="rect10060"
       width="256"
       height="256"
       x="256"
       y="0" /><rect
       style="fill:#f7d2b0;fill-opacity:1;stroke-width:5.73889;stroke-linecap:round;stroke-linejoin:round"
       id="rect10062"
       width="256"
       height="256"
       x="0"
       y="256" /><path
       id="ellipse454"
       style="fill:#ffffff;stroke-width:3.00094;stroke-linecap:round;stroke-linejoin:round"
       d="M 94.031299,94.075655 C 139.28613,48.820814 190.19782,54.477679 195.85467,60.134526 c 5.65686,5.656862 10.0528,59.130184 -33.94112,101.823384 -43.99391,42.6932 -96.166516,39.59798 -101.823377,33.94112 -5.656847,-5.65685 -11.313712,-56.56855 33.941126,-101.823375 z"
       sodipodi:nodetypes="zczcz" /><path
       id="path1487"
       style="fill:#fed8cd;fill-opacity:1;stroke-width:3.00095;stroke-linecap:round;stroke-linejoin:round"
       d="M 161.5761,161.488 C 116.80014,206.26398 66.515263,201.20013 59.976124,195.60878 L 195.69688,59.888022 c 5.59135,6.539139 10.6552,56.824008 -34.12078,101.599978 z" /><g
       id="g1684"
       transform="translate(-256,256)"><path
         style="fill:#ffffff;stroke-width:0.459209"
         d="m 463.23887,134.14193 h -28.27811 c 0,-7.80656 6.33249,-14.13905 14.13905,-14.13905 7.80656,0 14.13906,6.33249 14.13906,14.13905 z"
         id="path246" /><path
         style="fill:#ffffff;stroke-width:0.459209"
         d="m 422.75038,134.14193 h -28.2781 c 0,-7.80656 6.33249,-14.13905 14.13905,-14.13905 7.80656,0 14.13905,6.33249 14.13905,14.13905 z"
         id="path248" /><path
         style="fill:#ffffff;stroke-width:0.459209"
         d="M 382.25731,134.14193 H 353.9838 c 0,-7.80656 6.3279,-14.13905 14.13905,-14.13905 7.80656,0 14.13446,6.33249 14.13446,14.13905 z"
         id="path250" /><path
         style="fill:#ffffff;stroke-width:0.459209"
         d="m 341.76883,134.14193 h -28.27351 c 0,-7.80656 6.3279,-14.13905 14.13905,-14.13905 7.80656,0 14.13446,6.33249 14.13446,14.13905 z"
         id="path252" /><path
         style="fill:#ffffff;stroke-width:0.459209"
         d="M 466.65079,134.14193 H 480 c -4.96864,8.10045 -11.86137,14.61663 -19.89294,19.11229 -8.02698,4.49566 -17.1882,6.96161 -26.68924,6.96161 H 334.5868 c -19.00668,0 -36.64949,-9.873 -46.58678,-26.0739 h 13.34921 12.14609 28.27351 12.21497 28.27351 12.21497 28.2781 12.21038 28.27811 z"
         id="path256" /><path
         style="fill:#ffffff;stroke-width:0.459209"
         d="m 480,119.86971 -0.0367,0.005 c -0.22042,-3.32468 -1.65775,-6.31413 -3.87114,-8.52752 -2.41544,-2.41544 -5.75389,-3.90787 -9.44134,-3.90787 H 301.34923 c -7.06264,0 -12.84868,5.48755 -13.31248,12.43539 L 288,119.86971 c 0,-13.30329 10.78224,-24.08553 24.08553,-24.08553 h 143.82895 c 13.30329,0 24.08552,10.78224 24.08552,24.08553 z"
         id="path260" /></g><g
       id="g1676"
       transform="rotate(-45,88.427067,250.43025)"><g
         id="g419"
         transform="matrix(0.88110646,0,0,0.88110646,219.95379,150.7897)"
         style="fill:#ffffff">
	<path
   style="fill:#ffffff"
   d="m 160.897,240.197 c -2.381,0 -4.31,-1.929 -4.31,-4.31 v -75.852 c 0,-2.381 1.929,-4.31 4.31,-4.31 2.381,0 4.31,1.929 4.31,4.31 v 75.852 c 0,2.381 -1.929,4.31 -4.31,4.31 z"
   id="path415" />
	<path
   style="fill:#ffffff"
   d="m 211.466,240.197 c -2.381,0 -4.31,-1.929 -4.31,-4.31 v -75.852 c 0,-2.381 1.929,-4.31 4.31,-4.31 2.381,0 4.31,1.929 4.31,4.31 v 75.852 c 0,2.381 -1.929,4.31 -4.31,4.31 z"
   id="path417" />
</g><path
         style="fill:#ffffff;stroke-width:0.881107"
         d="m 383.99996,372.91004 h -16.65997 c -10.93188,0 -19.79493,-8.86305 -19.79493,-19.79494 v -24.75997 h 16.65996 c 10.93189,0 19.79494,8.86305 19.79494,19.79494 z"
         id="path421" /><path
         style="fill:#ffffff;stroke-width:0.881107"
         d="m 383.99996,410.32688 h -16.65997 c -10.93188,0 -19.79493,-8.86305 -19.79493,-19.79494 v -24.76085 h 16.65996 c 10.93189,0 19.79494,8.86305 19.79494,19.79494 z"
         id="path423" /><path
         style="fill:#ffffff;stroke-width:0.881107"
         d="m 383.99996,447.74372 h -16.65997 c -10.93188,0 -19.79493,-8.86305 -19.79493,-19.79493 v -24.75997 h 16.65996 c 10.93189,0 19.79494,8.86305 19.79494,19.79493 z"
         id="path425" /><path
         style="fill:#ffffff;stroke-width:0.881107"
         d="m 383.99996,372.91004 h 16.65995 c 10.93189,0 19.79495,-8.86305 19.79495,-19.79494 v -24.75997 h -16.65997 c -10.93188,0 -19.79493,8.86305 -19.79493,19.79494 z"
         id="path427" /><path
         style="fill:#ffffff;stroke-width:0.881107"
         d="m 383.99996,410.32688 h 16.65995 c 10.93189,0 19.79495,-8.86305 19.79495,-19.79494 v -24.76085 h -16.65997 c -10.93188,0 -19.79493,8.86305 -19.79493,19.79494 z"
         id="path429" /><path
         style="fill:#ffffff;stroke-width:0.881107"
         d="m 383.99996,447.74372 h 16.65995 c 10.93189,0 19.79495,-8.86305 19.79495,-19.79493 v -24.75997 h -16.65997 c -10.93188,0 -19.79493,8.86305 -19.79493,19.79493 z"
         id="path431" /><path
         style="fill:#ffffff;stroke-width:0.881107"
         d="m 383.99996,479.99913 c -2.09792,0 -3.79757,-1.69966 -3.79757,-3.79757 V 312.72562 c 0,-2.09792 1.69965,-3.79758 3.79757,-3.79758 2.09792,0 3.79757,1.69966 3.79757,3.79758 v 163.47594 c 0,2.09791 -1.69965,3.79757 -3.79757,3.79757 z"
         id="path433"
         sodipodi:nodetypes="sssssss" /><path
         style="fill:#ffffff;stroke-width:0.881107"
         d="m 383.99996,308.92893 c 2.09792,0 3.79757,1.69965 3.79757,3.79756 v 163.47595 c 0,2.0979 -1.69965,3.79756 -3.79757,3.79756 z"
         id="path435"
         sodipodi:nodetypes="csscc" /></g><path
       id="rect1294"
       style="fill:#ffffff;stroke:none;stroke-width:0.82853;stroke-linecap:round;stroke-linejoin:round;stroke-opacity:1"
       d="m 331.06459,444.20974 c -1e-5,3.4261 0.38427,7.26561 1.25481,11.66966 1.82004,9.22009 6.94177,15.93506 15.22269,19.96207 12.99434,6.31815 30.66209,4.48026 37.90684,0.79322 11.80886,-5.99936 23.32672,-17.04893 32.43681,-31.11568 12.10695,-18.68693 19.04968,-41.09662 19.04968,-61.48666 v -0.0281 -0.003 c 0,-20.40428 -6.94209,-42.82669 -19.04644,-61.51794 -9.11353,-14.07363 -20.6285,-25.12335 -32.42225,-31.11405 -7.25598,-3.69097 -24.93638,-5.53085 -37.93327,0.7916 -8.27579,4.0253 -13.39438,10.73617 -15.21352,19.94806 -3.80704,19.26887 1.67632,27.79366 8.02548,37.66255 5.48253,8.52254 11.69608,18.18275 11.69607,34.21793 v 0.0205 c 0,16.03345 -6.21419,25.69279 -11.69716,34.21575 -4.89754,7.61187 -9.27975,14.42639 -9.27975,25.98376 z m 30.55862,-81.59002 a 6.9022521,6.9022521 0 0 1 4.24704,-6.38567 6.9022521,6.9022521 0 0 1 9.02579,3.7159 c 0,0 1.75095,4.1978 3.49696,9.49383 1.74599,5.29604 3.66035,11.444 3.66034,17.4573 0,6.01331 -1.91434,12.16074 -3.66035,17.45677 -1.74601,5.29604 -3.49696,9.49384 -3.49696,9.49384 a 6.9022521,6.9022521 0 0 1 -9.02577,3.71643 6.9022521,6.9022521 0 0 1 -4.19042,-5.48459 6.9022521,6.9022521 0 0 1 0.47399,-3.54173 c 0,0 1.56213,-3.75265 3.1292,-8.50595 1.56708,-4.75329 2.96582,-10.75365 2.96582,-13.13477 0,-2.3811 -1.39875,-8.38147 -2.96582,-13.13477 -1.56706,-4.75328 -3.12919,-8.50648 -3.12919,-8.50648 a 6.9022521,6.9022521 0 0 1 -0.53063,-2.64011 z" /></g></svg>
