<?xml version="1.0" standalone="no"?>
<!DOCTYPE svg PUBLIC "-//W3C//DTD SVG 20010904//EN"
 "http://www.w3.org/TR/2001/REC-SVG-20010904/DTD/svg10.dtd">
<svg version="1.0" xmlns="http://www.w3.org/2000/svg"
 width="700.000000pt" height="700.000000pt" viewBox="0 0 700.000000 700.000000"
 preserveAspectRatio="xMidYMid meet">
<metadata>
Created by potrace 1.14, written by Peter Selinger 2001-2017
</metadata>
<g transform="translate(0.000000,700.000000) scale(0.100000,-0.100000)"
fill="#000000" stroke="none">
<path d="M0 3500 l0 -3500 3500 0 3500 0 0 3500 0 3500 -3500 0 -3500 0 0
-3500z m4802 2701 c668 -115 1248 -687 1393 -1376 36 -169 30 -429 -11 -492
-25 -39 -111 -58 -269 -57 -212 0 -400 44 -610 143 -204 97 -345 199 -525 381
-237 239 -387 495 -461 786 -69 276 -55 569 29 603 89 36 282 41 454 12z
m-2897 -316 c182 -46 345 -175 423 -335 55 -111 72 -184 72 -300 0 -181 -62
-333 -190 -461 -124 -125 -279 -189 -456 -189 -183 0 -336 62 -464 190 -354
353 -191 963 292 1090 91 24 241 26 323 5z m3496 -2856 c105 -49 235 -193 313
-348 75 -147 141 -377 173 -596 23 -164 23 -506 0 -670 -55 -386 -180 -681
-359 -850 -101 -96 -157 -120 -278 -120 -85 0 -101 3 -155 30 -297 149 -498
663 -498 1275 0 647 223 1178 543 1294 69 25 190 18 261 -15z m-3506 -629
c312 -29 583 -100 821 -215 205 -99 324 -198 390 -325 24 -46 29 -67 29 -130
0 -95 -29 -159 -115 -252 -68 -75 -131 -118 -216 -150 -50 -19 -79 -22 -199
-22 -124 1 -164 5 -345 42 -296 59 -349 66 -510 66 -160 0 -209 -6 -510 -66
-180 -36 -222 -41 -345 -41 -120 -1 -149 2 -199 21 -85 32 -148 75 -216 150
-86 93 -115 157 -115 252 0 66 4 85 34 145 82 167 306 323 608 424 281 94 588
129 888 101z"/>
</g>
</svg>
